<?xml version="1.0" encoding="UTF-8"?>
<svg id="TBSDL_Master_Logo_File_Digital_" data-name="TBSDL_Master Logo File (Digital)" xmlns="http://www.w3.org/2000/svg" viewBox="0 0 850 570">
  <defs>
    <style>
      .cls-1 {
        fill: #82cecc;
      }

      .cls-2 {
        fill: #02022b;
      }

      .cls-3 {
        fill: #e495f6;
      }
    </style>
  </defs>
  <g id="TBSDL_Primary_Logo_Navy_Blue_" data-name="TBSDL_Primary Logo (Navy Blue)">
    <path class="cls-3" d="M559.2,274.29c2.31,2.31,5.48,3.25,8.49,2.79l2.15,2.15-2.15,2.16c-3.01-.45-6.18.48-8.49,2.79-2.31,2.31-3.25,5.48-2.79,8.48l-2.15,2.15-2.15-2.15c.44-3.01-.48-6.18-2.79-8.49-2.31-2.31-5.48-3.24-8.48-2.79l-2.16-2.16,2.16-2.15c3,.45,6.17-.48,8.48-2.79,2.31-2.31,3.24-5.48,2.79-8.48l2.15-2.15,2.15,2.15c-.45,3,.48,6.17,2.79,8.48"/>
    <path class="cls-1" d="M306.04,391.99c2.31,2.31,5.48,3.25,8.49,2.79l2.15,2.15-2.15,2.16c-3.01-.45-6.18.48-8.49,2.79-2.31,2.31-3.25,5.48-2.79,8.48l-2.15,2.15-2.15-2.15c.44-3.01-.48-6.18-2.79-8.49-2.31-2.31-5.48-3.24-8.48-2.79l-2.16-2.16,2.16-2.15c3,.45,6.17-.48,8.48-2.79,2.31-2.31,3.24-5.48,2.79-8.48l2.15-2.15,2.15,2.15c-.45,3,.48,6.17,2.79,8.48"/>
    <path class="cls-2" d="M573.88,272.83l-19.54-51.18-19.7,51.18-4.49,11.78-11.32,29.31h-13.8l43.27-108.57h11.94l43.28,108.57h-13.81l-11.16-29.31-4.65-11.78ZM325.37,402.31l11.16,29.31h13.81l-43.28-108.57h-11.94l-43.27,108.57h13.8l11.32-29.31,4.49-11.78,19.7-51.18,19.54,51.18,4.65,11.78ZM189.51,189.15h6.32v-45.77h16.38v-5.66h-39.15v5.66h16.45v45.77ZM215.16,189.15h19.54c10.58,0,16.82-5.73,16.82-14.99,0-7.2-3.82-11.39-9.11-13.15,3.45-1.47,6.83-5.29,6.83-10.06,0-8.37-5.95-13.22-15.72-13.22h-18.36v51.42ZM221.41,159.03v-15.79h11.97c6.17,0,9.62,2.57,9.62,7.86s-3.45,7.93-9.62,7.93h-11.97ZM221.41,183.49v-18.88h12.27c7.57,0,11.46,3.31,11.46,9.48s-3.89,9.4-11.46,9.4h-12.27ZM273.99,189.73c10.72,0,18.81-5.29,18.81-14.62,0-19.32-30.27-11.17-30.27-24.32,0-4.92,4.11-8.01,11.09-8.01s11.39,3.75,11.97,9.55h6.17c-.73-9.26-7.86-15.21-18.14-15.21s-17.41,5.51-17.41,13.66c0,18.36,30.04,11.09,30.04,24.32,0,6.24-5.14,8.96-12.27,8.96-8.01,0-12.71-4.63-13.37-11.75h-6.17c.66,10.5,8.01,17.41,19.54,17.41ZM182.67,313.93h31.95c30.4,0,54.13-19.7,54.13-54.28s-23.73-54.28-54.13-54.28h-31.95v108.56ZM195.85,301.98v-84.68h18.46c21.09,0,40.63,12.41,40.63,42.34s-19.54,42.34-40.63,42.34h-18.46ZM281.18,313.93h13.18v-108.56h-13.18v108.56ZM358.66,315.17c15.97,0,29.47-8.22,34.59-20.16v18.92h12.25v-37.22c0-12.41-11.32-18.61-19.23-18.61h-26.83v11.48h24.5c5.27,0,8.53,3.26,8.53,8.22,0,15.66-15.82,25.75-33.66,25.75-22.33,0-38.77-15.82-38.77-43.89s16.44-43.58,38.77-43.58c16.75,0,30.4,9.77,32.88,23.57h13.96c-2.48-20.78-21.87-35.52-46.68-35.52-26.99,0-52.42,18.46-52.42,55.52s25.28,55.52,52.11,55.52ZM420.63,313.93h13.18v-108.56h-13.18v108.56ZM474.63,313.93h13.34v-96.62h34.59v-11.94h-82.66v11.94h34.74v96.62ZM609.48,313.93h67.47v-11.94h-54.28v-96.62h-13.18v108.56ZM182.67,431.62h67.47v-11.94h-54.28v-96.62h-13.18v108.56ZM356.31,431.62h41.26c22.33,0,35.52-12.1,35.52-31.64,0-15.2-8.06-24.04-19.23-27.76,7.29-3.1,14.42-11.17,14.42-21.25,0-17.68-12.56-27.92-33.19-27.92h-38.77v108.56ZM369.5,368.03v-33.34h25.28c13.03,0,20.32,5.43,20.32,16.59s-7.29,16.75-20.32,16.75h-25.28ZM369.5,419.68v-39.86h25.9c15.97,0,24.19,6.98,24.19,20.01s-8.22,19.85-24.19,19.85h-25.9ZM480.52,432.86c22.64,0,39.7-11.17,39.7-30.86,0-40.79-63.9-23.57-63.9-51.34,0-10.39,8.69-16.9,23.42-16.9s24.04,7.91,25.28,20.16h13.03c-1.55-19.54-16.6-32.1-38.31-32.1s-36.76,11.63-36.76,28.85c0,38.77,63.43,23.42,63.43,51.34,0,13.18-10.86,18.92-25.9,18.92-16.91,0-26.83-9.77-28.23-24.81h-13.03c1.4,22.18,16.91,36.76,41.25,36.76Z"/>
  </g>
</svg>