<?xml version="1.0" encoding="UTF-8"?>
<svg id="TBSDL_Master_Logo_File_Digital_" data-name="TBSDL_Master Logo File (Digital)" xmlns="http://www.w3.org/2000/svg" viewBox="0 0 850 570">
  <defs>
    <style>
      .cls-1 {
        fill: #fff;
      }
    </style>
  </defs>
  <path id="TBSDL_Primary_Logo_White_" data-name="TBSDL_Primary Logo (White)" class="cls-1" d="M559.2,274.29c2.31,2.31,5.48,3.25,8.49,2.79l2.15,2.15-2.15,2.16c-3.01-.45-6.18.48-8.49,2.79-2.31,2.31-3.25,5.48-2.79,8.48l-2.15,2.15-2.15-2.15c.44-3.01-.48-6.18-2.79-8.49-2.31-2.31-5.48-3.24-8.48-2.79l-2.16-2.16,2.16-2.15c3,.45,6.17-.48,8.48-2.79,2.31-2.31,3.24-5.48,2.79-8.48l2.15-2.15,2.15,2.15c-.45,3,.48,6.17,2.79,8.48M306.04,391.99c-2.31-2.31-3.25-5.48-2.79-8.48l-2.15-2.15-2.15,2.15c.44,3-.48,6.17-2.79,8.48-2.31,2.31-5.48,3.25-8.48,2.79l-2.16,2.15,2.16,2.16c3-.45,6.17.48,8.48,2.79,2.31,2.31,3.24,5.48,2.79,8.49l2.15,2.15,2.15-2.15c-.45-3,.48-6.17,2.79-8.48,2.31-2.32,5.48-3.25,8.49-2.79l2.15-2.16-2.15-2.15c-3.01.45-6.18-.48-8.49-2.79M578.53,284.61l11.16,29.31h13.81l-43.28-108.57h-11.94l-43.27,108.57h13.8l11.32-29.31,4.49-11.78,19.7-51.18,19.54,51.18,4.65,11.78ZM320.71,390.52l-19.54-51.18-19.7,51.18-4.49,11.78-11.32,29.31h-13.8l43.27-108.57h11.94l43.28,108.57h-13.81l-11.16-29.31-4.65-11.78ZM189.51,143.38h-16.45v-5.66h39.15v5.66h-16.38v45.77h-6.32v-45.77ZM215.16,137.73h18.36c9.77,0,15.72,4.85,15.72,13.22,0,4.77-3.38,8.59-6.83,10.06,5.29,1.76,9.11,5.95,9.11,13.15,0,9.26-6.24,14.99-16.82,14.99h-19.54v-51.42ZM233.38,159.03c6.17,0,9.62-2.64,9.62-7.93s-3.45-7.86-9.62-7.86h-11.97v15.79h11.97ZM233.67,183.49c7.57,0,11.46-3.31,11.46-9.4s-3.89-9.48-11.46-9.48h-12.27v18.88h12.27ZM254.45,172.33h6.17c.66,7.13,5.36,11.75,13.37,11.75,7.13,0,12.27-2.72,12.27-8.96,0-13.22-30.04-5.95-30.04-24.32,0-8.15,7.13-13.66,17.41-13.66s17.41,5.95,18.14,15.21h-6.17c-.59-5.8-5.07-9.55-11.97-9.55s-11.09,3.08-11.09,8.01c0,13.15,30.27,5,30.27,24.32,0,9.33-8.08,14.62-18.81,14.62-11.53,0-18.88-6.9-19.54-17.41ZM182.67,205.36h31.95c30.4,0,54.13,19.7,54.13,54.28s-23.73,54.28-54.13,54.28h-31.95v-108.56ZM214.31,301.98c21.09,0,40.63-12.41,40.63-42.34s-19.54-42.34-40.63-42.34h-18.46v84.68h18.46ZM281.18,205.36h13.18v108.56h-13.18v-108.56ZM306.55,259.64c0-37.07,25.44-55.52,52.42-55.52,24.81,0,44.2,14.73,46.68,35.52h-13.96c-2.48-13.8-16.13-23.57-32.88-23.57-22.33,0-38.77,15.35-38.77,43.58s16.44,43.89,38.77,43.89c17.84,0,33.66-10.08,33.66-25.75,0-4.96-3.26-8.22-8.53-8.22h-24.5v-11.48h26.83c7.91,0,19.23,6.2,19.23,18.61v37.22h-12.25v-18.92c-5.12,11.94-18.61,20.16-34.59,20.16-26.83,0-52.11-18.46-52.11-55.52ZM420.63,205.36h13.18v108.56h-13.18v-108.56ZM474.63,217.3h-34.74v-11.94h82.66v11.94h-34.59v96.62h-13.34v-96.62ZM609.48,205.36h13.18v96.62h54.28v11.94h-67.47v-108.56ZM182.67,323.06h13.18v96.62h54.28v11.94h-67.47v-108.56ZM356.31,323.06h38.77c20.63,0,33.19,10.24,33.19,27.92,0,10.08-7.13,18.15-14.42,21.25,11.17,3.72,19.23,12.56,19.23,27.76,0,19.54-13.18,31.64-35.52,31.64h-41.26v-108.56ZM394.78,368.03c13.03,0,20.32-5.58,20.32-16.75s-7.29-16.59-20.32-16.59h-25.28v33.34h25.28ZM395.4,419.68c15.97,0,24.19-6.98,24.19-19.85s-8.22-20.01-24.19-20.01h-25.9v39.86h25.9ZM439.27,396.11h13.03c1.4,15.04,11.32,24.81,28.23,24.81,15.04,0,25.9-5.74,25.9-18.92,0-27.92-63.43-12.56-63.43-51.34,0-17.21,15.04-28.85,36.76-28.85s36.76,12.56,38.31,32.1h-13.03c-1.24-12.25-10.7-20.16-25.28-20.16s-23.42,6.51-23.42,16.9c0,27.76,63.9,10.55,63.9,51.34,0,19.7-17.06,30.86-39.7,30.86-24.35,0-39.86-14.58-41.25-36.76Z"/>
</svg>